<svg width="40" height="40" viewBox="0 0 40 40" fill="none" xmlns="http://www.w3.org/2000/svg">
<rect width="40" height="40" rx="12" fill="#B4E040"/>
<path fill-rule="evenodd" clip-rule="evenodd" d="M14.9519 11.8336C14.5929 11.0366 14.2155 11.0183 13.875 11.0092C13.5988 11 13.2767 11 12.9546 11C12.6324 11 12.117 11.1191 11.6752 11.5954C11.2334 12.0718 10 13.226 10 15.5802C10 17.9253 11.7212 20.1971 11.9605 20.5177C12.1998 20.8384 15.2832 25.8125 20.1522 27.727C24.2021 29.3209 25.0305 29.0003 25.9049 28.9179C26.7793 28.8354 28.7398 27.7637 29.1448 26.6461C29.5405 25.5285 29.5405 24.5758 29.4209 24.3743C29.3012 24.1728 28.9791 24.0537 28.5005 23.8155C28.0219 23.5773 25.6656 22.4231 25.2238 22.2582C24.782 22.1025 24.4598 22.0201 24.1469 22.4964C23.8247 22.9727 22.9043 24.0445 22.6282 24.3651C22.3521 24.6858 22.0667 24.7224 21.5881 24.4842C21.1095 24.246 19.5632 23.7422 17.7315 22.1117C16.3049 20.8475 15.3384 19.2811 15.0623 18.8047C14.7862 18.3284 15.0347 18.0719 15.274 17.8337C15.4857 17.623 15.7526 17.2749 15.9919 17.0001C16.2313 16.7253 16.3141 16.5238 16.4706 16.2032C16.627 15.8825 16.5534 15.6077 16.4337 15.3695C16.3141 15.1405 15.3753 12.7771 14.9519 11.8336Z" fill="#25313A"/>
</svg>
