<svg width="132" height="25" viewBox="0 0 132 25" fill="none" xmlns="http://www.w3.org/2000/svg">
<g clip-path="url(#clip0_33_3869)">
<path d="M4.91113 18.5164C5.64496 19.4379 6.31284 20.4086 6.90994 21.4214C7.41974 22.3741 7.63224 23.02 8.00487 24.1677C8.23333 24.8018 8.43984 24.9911 8.8838 24.9911C9.36766 24.9911 9.58715 24.6691 9.75675 24.1712C10.1089 23.0873 10.3853 22.26 10.8212 21.4785C11.6767 19.9694 12.7397 18.6285 13.7843 17.3397C14.0671 16.9749 15.8953 14.85 16.7184 13.1733C16.7184 13.1733 17.73 11.3315 17.73 8.75924C17.73 6.35312 16.7324 4.68433 16.7324 4.68433L13.8601 5.44229L12.1157 9.96942L11.6842 10.5937L11.5979 10.7067L11.4832 10.8483L11.2817 11.0744L10.9938 11.358L9.44049 12.6051L5.55712 14.8146L4.91113 18.5164Z" fill="#34A853"/>
<path d="M0.902832 12.8638C1.85061 14.9971 3.67831 16.8724 4.91491 18.5181L11.483 10.8514C11.483 10.8514 10.5577 12.0439 8.8791 12.0439C7.00949 12.0439 5.49903 10.5727 5.49903 8.71762C5.49903 7.4455 6.27571 6.57153 6.27571 6.57153L1.81718 7.74878L0.902832 12.8638Z" fill="#FBBC04"/>
<path d="M11.5564 0.389404C13.7378 1.08248 15.6049 2.53746 16.7343 4.68305L11.4851 10.847C11.4851 10.847 12.2618 9.95734 12.2618 8.69308C12.2618 6.79473 10.6396 5.37662 8.88719 5.37662C7.23008 5.37662 6.27832 6.56715 6.27832 6.56715V2.68394L11.5564 0.389404Z" fill="#4285F4"/>
<path d="M2.10596 3.11299C3.4089 1.57691 5.70151 -0.00488281 8.86209 -0.00488281C10.3955 -0.00488281 11.5508 0.391794 11.5508 0.391794L6.27317 6.57052H2.53395L2.10596 3.11299Z" fill="#1A73E8"/>
<path d="M0.902713 12.8638C0.902713 12.8638 0.0307617 11.1813 0.0307617 8.74369C0.0307617 6.43982 0.939627 4.42595 2.10589 3.11304L6.27609 6.57106L0.902713 12.8638Z" fill="#EA4335"/>
<path d="M90.6323 20.2688V7.13124H92.3453L96.9819 15.1311H97.0567L101.693 7.13124H103.406V20.2688H101.693V12.4704L101.768 10.2683H101.693L97.5231 17.4793H96.518L92.3478 10.2683H92.273L92.3478 12.4704V20.2683L90.6323 20.2688ZM108.415 20.544C107.447 20.544 106.636 20.2688 105.985 19.7182C105.334 19.1677 105.008 18.4402 105.008 17.5348C105.008 16.5517 105.392 15.7888 106.162 15.2319C106.932 14.675 107.881 14.3973 109.005 14.3973C110.011 14.3973 110.836 14.5806 111.482 14.9478V14.6907C111.482 14.0301 111.252 13.5012 110.793 13.104C110.335 12.7068 109.769 12.5078 109.098 12.5078C108.602 12.5078 108.153 12.6238 107.749 12.8518C107.346 13.0799 107.07 13.4024 106.921 13.8054L105.357 13.1453C105.568 12.6071 105.984 12.1131 106.604 11.65C107.224 11.187 108.043 10.9619 109.062 10.9619C110.229 10.9619 111.197 11.2986 111.966 11.971C112.736 12.6434 113.12 13.5921 113.12 14.8156V20.2516H111.482V19.003H111.408C110.724 20.0353 109.725 20.544 108.415 20.544ZM108.694 19.003C109.401 19.003 110.043 18.7425 110.621 18.2235C111.199 17.7044 111.487 17.0929 111.487 16.3802C111.003 15.9884 110.277 15.7928 109.308 15.7928C108.476 15.7928 107.849 15.9697 107.428 16.3251C107.006 16.6805 106.794 17.0959 106.794 17.5726C106.794 18.0131 106.987 18.3616 107.372 18.6187C107.756 18.8757 108.197 19.004 108.693 19.004L108.694 19.003ZM119.539 20.544C118.845 20.544 118.221 20.3966 117.669 20.1036C117.117 19.8107 116.704 19.443 116.432 19.0026H116.357L116.432 20.2501V24.2134H114.719V11.2602H116.358V12.5078H116.433C116.706 12.0673 117.118 11.7006 117.67 11.4067C118.222 11.1128 118.846 10.9663 119.54 10.9663C120.72 10.9663 121.738 11.4249 122.594 12.3426C123.451 13.2603 123.879 14.3973 123.879 15.7554C123.879 17.1135 123.45 18.251 122.594 19.1682C121.738 20.0854 120.72 20.5445 119.54 20.5445L119.539 20.544ZM119.26 19.003C120.055 19.003 120.737 18.7062 121.308 18.1183C121.88 17.5304 122.165 16.739 122.165 15.7603C122.165 14.7817 121.879 13.9908 121.308 13.4024C120.737 12.814 120.054 12.5176 119.26 12.5176C118.453 12.5176 117.767 12.811 117.202 13.3984C116.638 13.9858 116.356 14.7748 116.356 15.7652C116.356 16.7557 116.638 17.5446 117.202 18.132C117.767 18.7194 118.453 19.0129 119.26 19.0129V19.003ZM128.431 20.544C127.413 20.544 126.572 20.2993 125.908 19.8102C125.244 19.3211 124.761 18.7091 124.446 17.9752L125.973 17.351C126.457 18.4815 127.283 19.0384 128.45 19.0384C128.984 19.0384 129.422 18.9224 129.763 18.6944C130.104 18.4663 130.275 18.1561 130.275 17.7771C130.275 17.1902 129.859 16.7921 129.027 16.5846L127.184 16.1447C126.6 15.9982 126.048 15.7195 125.527 15.3101C125.006 14.9006 124.745 14.3466 124.745 13.6501C124.745 12.8553 125.101 12.2099 125.815 11.7134C126.529 11.217 127.377 10.9702 128.357 10.9702C129.163 10.9702 129.883 11.1506 130.517 11.5109C131.137 11.8579 131.618 12.4056 131.876 13.0612L130.386 13.6668C130.052 12.872 129.356 12.4743 128.301 12.4743C127.792 12.4743 127.363 12.5785 127.016 12.786C126.67 12.9934 126.495 13.2756 126.495 13.6305C126.495 14.1441 126.894 14.4926 127.705 14.6765L129.511 15.0982C130.367 15.2938 131.001 15.6306 131.41 16.1074C131.82 16.5842 132.025 17.1229 132.025 17.7226C132.025 18.5297 131.689 19.1972 131.019 19.7409C130.349 20.2845 129.486 20.548 128.425 20.548L128.431 20.544ZM39.8696 12.436H32.8431V14.4907H37.8314C37.5854 17.3711 35.1527 18.6 32.8566 18.6C32.129 18.6032 31.408 18.4636 30.7358 18.1893C30.0636 17.9149 29.4536 17.5114 28.9414 17.0022C28.4293 16.4929 28.0252 15.8882 27.7528 15.2234C27.4804 14.5586 27.3452 13.847 27.355 13.1301C27.355 10.0201 29.7982 7.62475 32.862 7.62475C35.2265 7.62475 36.6182 9.1102 36.6182 9.1102L38.0783 7.62082C38.0783 7.62082 36.2042 5.56616 32.7872 5.56616C28.4359 5.56616 25.0688 9.18541 25.0688 13.0947C25.0688 16.9248 28.2364 20.661 32.8985 20.661C36.9988 20.661 40.0018 17.8926 40.0018 13.7991C40.0018 12.9359 39.8746 12.4365 39.8746 12.4365L39.8696 12.436Z" fill="#767676"/>
<path d="M45.6379 10.9746C42.7546 10.9746 40.6885 13.1954 40.6885 15.7859C40.6885 18.4146 42.6928 20.6767 45.6768 20.6767C48.3739 20.6767 50.5832 18.6457 50.5832 15.8419C50.5832 12.6287 48.0128 10.9736 45.6428 10.9736L45.6379 10.9746ZM45.6663 12.8803C47.0845 12.8803 48.4278 14.0099 48.4278 15.8296C48.4278 17.611 47.0894 18.774 45.6593 18.774C44.088 18.774 42.8484 17.5338 42.8484 15.8163C42.8484 14.1362 44.073 12.8808 45.6658 12.8808L45.6663 12.8803Z" fill="#767676"/>
<path d="M56.3507 10.9746C53.4675 10.9746 51.4014 13.1954 51.4014 15.7859C51.4014 18.4146 53.4057 20.6767 56.3896 20.6767C59.0868 20.6767 61.2961 18.6457 61.2961 15.8419C61.2961 12.6287 58.7257 10.9736 56.3557 10.9736L56.3507 10.9746ZM56.3792 12.8803C57.7973 12.8803 59.1407 14.0099 59.1407 15.8296C59.1407 17.611 57.8023 18.774 56.3722 18.774C54.8009 18.774 53.5613 17.5338 53.5613 15.8163C53.5613 14.1362 54.7859 12.8808 56.3787 12.8808L56.3792 12.8803Z" fill="#767676"/>
<path d="M66.8993 10.9745C64.253 10.9745 62.1724 13.2588 62.1724 15.8222C62.1724 18.7419 64.5837 20.6786 66.8529 20.6786C68.2561 20.6786 69.0018 20.1296 69.5535 19.4989V20.4555C69.5535 22.1292 68.522 23.1319 66.9596 23.1319C65.4557 23.1319 64.7019 22.0299 64.4395 21.4046L62.5475 22.1842C63.2189 23.5827 64.5697 25.0416 66.9761 25.0416C69.6074 25.0416 71.6132 23.4087 71.6132 19.9787V11.2636H69.549V12.0854C68.9145 11.412 68.0466 10.9721 66.8953 10.9721L66.8993 10.9745ZM67.0908 12.8768C68.3888 12.8768 69.7206 13.9681 69.7206 15.8325C69.7206 17.7279 68.3913 18.7719 67.0619 18.7719C65.6512 18.7719 64.3383 17.6433 64.3383 15.8502C64.3383 13.9823 65.7011 12.8763 67.0908 12.8763V12.8768ZM80.8255 10.9745C78.3294 10.9745 76.2328 12.9309 76.2328 15.8197C76.2328 18.8752 78.5688 20.688 81.065 20.688C83.1481 20.688 84.4271 19.5648 85.1893 18.5586L83.4933 17.4428C83.0518 18.1182 82.3131 18.7788 81.0814 18.7788C79.6972 18.7788 79.0612 18.0317 78.6671 17.3081L85.2686 14.6046L84.9259 13.8181C84.2874 12.2688 82.7999 10.975 80.8355 10.975L80.8255 10.9745ZM80.9113 12.8404C81.8112 12.8404 82.4577 13.3123 82.7336 13.8766L78.3249 15.6924C78.1354 14.2866 79.4857 12.8404 80.9113 12.8404ZM73.0797 20.3989H75.2476V6.09497H73.0797V20.3989Z" fill="#767676"/>
</g>
<defs>
<clipPath id="clip0_33_3869">
<rect width="132" height="25" fill="white"/>
</clipPath>
</defs>
</svg>
