<svg width="133" height="21" viewBox="0 0 133 21" fill="none" xmlns="http://www.w3.org/2000/svg">
<path d="M8.41484 17.1725H11.3089V0.56958H7.0925C2.85347 0.56958 0.631948 2.7401 0.631948 5.94312C0.631948 8.498 1.8485 10.0053 4.03224 11.5578L0.246582 17.1725H3.38241L7.59877 10.8871L6.14042 9.90734C4.36471 8.71657 3.5033 7.78203 3.5033 5.77732C3.5033 4.00624 4.75008 2.81546 7.12273 2.81546H8.41484V17.1725ZM64.293 17.4062C65.6153 17.4062 66.5447 17.1725 67.2399 16.6676V14.3539C66.522 14.8513 65.6606 15.1603 64.4667 15.1603C62.4266 15.1603 61.5878 13.5852 61.5878 11.1056C61.5878 8.49801 62.623 7.16404 64.4894 7.16404C65.5926 7.16404 66.6656 7.54087 67.2399 7.90262V5.49093C66.6429 5.15179 65.5926 4.91816 64.1796 4.91816C60.5375 4.91816 58.6409 7.51826 58.6409 11.1735C58.6409 15.1904 60.4846 17.4062 64.293 17.4062ZM46.4754 16.3586V14.0374C45.5914 14.6403 44.1028 15.1603 42.7124 15.1603C40.6269 15.1603 39.8411 14.1881 39.7202 12.1758H46.5963V10.6761C46.5963 6.49329 44.7526 4.91816 41.8964 4.91816C38.4281 4.91816 36.7733 7.56348 36.7733 11.1961C36.7733 15.3789 38.8361 17.4062 42.4782 17.4062C44.2917 17.4062 45.6367 16.9314 46.4754 16.3586ZM55.5806 17.1725H58.8071L54.2356 10.7891L58.2631 5.15179H55.3842L51.3643 10.7891V5.15179H48.508V17.1725H51.3643V11.3619L55.5806 17.1725ZM36.0781 14.9267H34.8086V5.15179H26.4968V6.18429C26.4968 9.116 26.3079 12.9144 25.3029 14.9267H24.4113V19.9158H27.0484V17.1725H33.441V19.9158H36.0781V14.9267ZM20.3687 5.15179V9.90734H16.5604V5.15179H13.7042V17.1725H16.5604V12.1532H20.3687V17.1725H23.2174V5.15179H20.3687ZM41.851 7.16404C43.264 7.16404 43.6947 8.3322 43.6947 9.83951V10.0731H39.7202C39.7957 8.1664 40.4834 7.16404 41.851 7.16404ZM31.96 14.9267H27.9325C28.7259 13.1104 28.945 9.83951 28.945 7.75943V7.39767H31.96V14.9267ZM82.118 17.1725H85.4957L79.5791 8.45279L84.944 0.56958H81.9971L76.8438 8.21162V0.56958H73.9498V17.1725H76.8438V9.37978L82.118 17.1725ZM95.2205 8.97281C95.2205 6.06371 93.7319 4.96337 90.717 4.96337C88.8279 4.96337 87.3394 5.55876 86.478 6.06371V8.43018C87.2411 7.84986 88.9186 7.23187 90.3845 7.23187C91.7446 7.23187 92.3718 7.70667 92.3718 9.00295V9.66617H91.9109C87.5509 9.66617 85.6165 11.1056 85.6165 13.5399C85.6165 15.9742 87.0976 17.3383 89.304 17.3383C90.9815 17.3383 91.6993 16.7882 92.2509 16.2154H92.3718C92.3945 16.5244 92.4927 16.9314 92.5834 17.1725H95.3641C95.2658 16.1928 95.2205 15.213 95.2205 14.2333V8.97281ZM92.3718 14.3011C92.0091 14.8287 91.3366 15.2583 90.3316 15.2583C89.1377 15.2583 88.5332 14.5875 88.5332 13.5625C88.5332 12.1984 89.5155 11.701 91.9638 11.701H92.3718V14.3011ZM100.155 5.15179H97.5176V20.6318H100.366V15.7632C101.092 16.8334 102.142 17.4062 103.366 17.4062C106.139 17.4062 108.058 15.1904 108.058 11.1509C108.058 7.13389 106.192 4.91816 103.51 4.91816C102.165 4.91816 101.061 5.53615 100.298 6.70431L100.155 5.15179ZM102.648 15.1603C101.137 15.1603 100.366 13.9469 100.366 11.1735C100.366 8.37742 101.182 7.16404 102.792 7.16404C104.348 7.16404 105.112 8.37742 105.112 11.1509C105.112 13.9469 104.295 15.1603 102.648 15.1603ZM118.093 7.39767V5.15179H108.535V7.39767H111.889V17.1725H114.738V7.39767H118.093ZM119.771 5.15179V17.1725H124.108C126.911 17.1725 128.898 15.7406 128.898 12.9144C128.898 10.2389 127.123 8.82961 124.153 8.82961H122.619V5.15179H119.771ZM129.949 5.15179V17.1725H132.805V5.15179H129.949ZM123.942 14.9267H122.619V11.0755H124.01C125.234 11.0755 125.952 11.6257 125.952 13.0124C125.952 14.3991 125.158 14.9267 123.942 14.9267Z" fill="black"/>
</svg>
