<svg width="49" height="49" viewBox="0 0 49 49" fill="none" xmlns="http://www.w3.org/2000/svg">
<path d="M0 33C0 28.5817 3.58172 25 8 25H16C20.4183 25 24 28.5817 24 33V41C24 45.4183 20.4183 49 16 49H8C3.58172 49 0 45.4183 0 41V33Z" fill="#25313A"/>
<path d="M24 8.33333C24 3.73096 27.731 0 32.3333 0H40.6667C45.269 0 49 3.73096 49 8.33333V16.6667C49 21.269 45.269 25 40.6667 25H32.3333C27.731 25 24 21.269 24 16.6667V8.33333Z" fill="#25313A"/>
<path fill-rule="evenodd" clip-rule="evenodd" d="M32.6667 0C28.1563 0 24.5 3.65634 24.5 8.16667V16.2517C24.5 16.2517 23.7675 20.2509 22.05 21.9683C20.3325 23.6858 16.3333 24.4183 16.3333 24.4183L16.4154 24.5004C16.3881 24.5001 16.3607 24.5 16.3333 24.5H8.16667C3.65634 24.5 0 28.1563 0 32.6667V40.8333C0 45.3437 3.65634 49 8.16667 49H16.3333C20.8437 49 24.5 45.3437 24.5 40.8333V32.6667C24.5 32.6393 24.4999 32.6119 24.4996 32.5846C24.4996 32.5846 25.2325 28.5858 26.95 26.8683C28.3556 25.4627 31.2896 24.7168 32.3087 24.4923C32.4274 24.4974 32.5467 24.5 32.6667 24.5H40.8333C45.3437 24.5 49 20.8437 49 16.3333V8.16667C49 3.65634 45.3437 0 40.8333 0H32.6667Z" fill="#25313A"/>
<path fill-rule="evenodd" clip-rule="evenodd" d="M24 8.33333C24 4.83553 20.4183 2 16 2H8C3.67009 2 0.16 4.83553 0.16 8.33333V16.6667C0.16 21.269 3.67009 25 8 25C3.58172 25 0 21.269 0 16.6667V8.33333C0 8.08432 0.0104853 7.83785 0.0310212 7.59439C0.390034 3.33815 3.82078 0 8 0H16C20.4183 0 24 3.73096 24 8.33333Z" fill="#25313A"/>
<path fill-rule="evenodd" clip-rule="evenodd" d="M48.9677 41.7094C48.5937 45.7954 45.02 49 40.6667 49H32.3333C27.731 49 24 45.4183 24 41C24 44.3579 27.731 47.08 32.3333 47.08H40.6667C45.177 47.08 48.8333 44.3579 48.8333 41V33C48.8333 28.5817 45.177 25 40.6667 25C45.269 25 49 28.5817 49 33V41C49 41.2391 48.9891 41.4757 48.9677 41.7094Z" fill="#25313A"/>
<path d="M8.90667 41.9708C8.67556 41.9708 8.46222 41.8735 8.26667 41.6788C8.08889 41.5036 8 41.2895 8 41.0365V31.6058C8 31.0803 8.16 30.6813 8.48 30.4088C8.81778 30.1363 9.17333 30 9.54667 30H12.16C12.7644 30 13.3244 30.146 13.84 30.438C14.3733 30.7105 14.8 31.1095 15.12 31.635C15.44 32.1411 15.6 32.7543 15.6 33.4745C15.6 34.1557 15.4133 34.8078 15.04 35.4307C14.6844 36.0341 14.2222 36.4428 13.6533 36.6569C13.9022 36.7737 14.1333 36.9684 14.3467 37.2409C14.5778 37.4939 14.7822 37.8345 14.96 38.2628L15.92 40.6277C15.9733 40.7445 16 40.871 16 41.0073C16 41.3577 15.8933 41.6107 15.68 41.7664C15.4844 41.9221 15.28 42 15.0667 42C14.7111 42 14.4622 41.8151 14.32 41.4453L13.2267 38.6423C12.9956 38.0779 12.7022 37.6886 12.3467 37.4745C11.9911 37.2603 11.6 37.1533 11.1733 37.1533H10.5067C10.0444 37.1533 9.81333 37.4453 9.81333 38.0292V41.0365C9.81333 41.2895 9.72444 41.5036 9.54667 41.6788C9.36889 41.8735 9.15556 41.9708 8.90667 41.9708ZM10.4 35.4015H11.8933C12.3378 35.4015 12.7644 35.2457 13.1733 34.9343C13.6 34.6034 13.8133 34.1363 13.8133 33.5328C13.8133 32.9489 13.6178 32.5109 13.2267 32.219C12.8533 31.927 12.4444 31.781 12 31.781H10.48C10.0356 31.781 9.81333 32.0243 9.81333 32.5109V34.7299C9.81333 35.1776 10.0089 35.4015 10.4 35.4015Z" fill="white"/>
<path d="M36.5738 18C35.7082 18 34.8721 17.8554 34.0656 17.5663C33.2787 17.2771 32.6689 16.8627 32.2361 16.3229C32.0787 16.1108 32 15.8988 32 15.6867C32 15.4361 32.0984 15.2241 32.2951 15.0506C32.5115 14.8578 32.7475 14.7614 33.0033 14.7614C33.141 14.7614 33.2787 14.7904 33.4164 14.8482C33.5541 14.8867 33.6623 14.9639 33.741 15.0795C34.0557 15.4458 34.4787 15.7349 35.0098 15.947C35.5607 16.159 36.1311 16.2651 36.7213 16.2651C37.4098 16.2651 37.9705 16.1012 38.4033 15.7735C38.8557 15.4458 39.082 15.012 39.082 14.4723C39.082 13.8554 38.8164 13.4217 38.2852 13.1711C37.7738 12.9012 37.1738 12.7084 36.4852 12.5928C35.8557 12.4771 35.2164 12.3133 34.5672 12.1012C33.918 11.8699 33.377 11.5422 32.9443 11.1181C32.5115 10.6747 32.2951 10.0771 32.2951 9.3253C32.2951 8.30361 32.6885 7.49398 33.4754 6.89639C34.282 6.2988 35.3541 6 36.6918 6C37.4 6 38.0492 6.10602 38.6393 6.31807C39.2295 6.51084 39.7213 6.78072 40.1148 7.12771C40.3508 7.32048 40.4689 7.56145 40.4689 7.8506C40.4689 8.08193 40.3803 8.28434 40.2033 8.45783C40.0262 8.63133 39.8197 8.71807 39.5836 8.71807C39.3475 8.71807 39.1213 8.64096 38.9049 8.48675C38.2754 7.98554 37.4984 7.73494 36.5738 7.73494C35 7.73494 34.2131 8.25542 34.2131 9.29639C34.2131 9.79759 34.4492 10.1446 34.9213 10.3373C35.4131 10.5108 36.0721 10.694 36.8984 10.8867C37.2918 10.9639 37.7148 11.0795 38.1672 11.2337C38.6393 11.3687 39.0918 11.5711 39.5246 11.841C39.9574 12.0916 40.3115 12.4386 40.5869 12.8819C40.8623 13.306 41 13.8458 41 14.5012C41 15.5422 40.5869 16.3904 39.7607 17.0458C38.9541 17.6819 37.8918 18 36.5738 18Z" fill="white"/>
</svg>
