<svg width="78" height="25" viewBox="0 0 78 25" fill="none" xmlns="http://www.w3.org/2000/svg">
<path d="M73.6752 9.19542H77.2181C76.77 5.74711 74.2515 3.93457 70.7512 3.93457C67.2084 3.93457 64.8393 5.81346 64.8393 9.04069C64.8393 12.71 67.8913 13.5278 69.5133 13.8595C71.6049 14.2794 73.6538 14.3237 73.6538 16.1804C73.6538 17.4403 72.6294 18.0592 71.1781 18.0592C69.3853 18.0592 68.1902 17.1309 67.8913 15.451H64.3911C64.6045 19.0761 67.1444 21.0213 70.8794 21.0213C74.3369 21.0213 77.1754 19.3856 77.1754 15.8489C77.1754 12.0469 73.91 11.3617 71.6263 11.008C70.0682 10.7649 68.3608 10.5438 68.3608 8.84173C68.3608 7.64811 69.2359 6.9187 70.7085 6.9187C72.416 6.9187 73.4404 7.91344 73.6752 9.19542Z" fill="#403F41"/>
<path d="M62.449 4.4873H59.0981V20.5129H62.449V4.4873Z" fill="#403F41"/>
<path d="M48.9819 14.9205H53.3572C52.6742 16.6448 51.1374 17.4625 49.366 17.4625C46.25 17.4625 44.7987 14.9647 44.7987 12.489C44.7987 9.9912 46.1646 7.44925 49.3447 7.44925C51.2869 7.44925 52.7381 8.37763 53.2931 10.0354L56.9 10.0355C56.2811 6.29989 53.1224 4.15576 49.3874 4.15576C44.7774 4.15576 41.3198 7.40501 41.3198 12.5333C41.3198 17.7278 45.0761 20.8003 49.366 20.8003C53.5919 20.8003 56.9 17.9488 56.9 13.4838V12.1796H48.9819V14.9205Z" fill="#403F41"/>
<path d="M33.6576 4.15576C29.8159 4.15576 26.9773 6.65349 26.9987 10.8091H30.4562C30.4135 8.99657 31.5233 7.33876 33.4868 7.33876C35.1943 7.33876 36.1974 8.57662 36.1974 9.99122C36.1974 11.4059 35.1943 12.2017 33.3374 13.0638C30.7976 14.2353 28.9836 14.9869 27.1267 15.65V20.5129H40.0605V17.2415H31.1813C31.1813 17.2415 31.2109 17.2319 31.2254 17.2274C32.7356 16.7534 33.8702 16.2385 35.2157 15.6279C38.0969 14.3017 39.7403 12.6438 39.7403 9.81446C39.7403 6.34401 37.2646 4.15576 33.6576 4.15576Z" fill="#403F41"/>
<path d="M17.9066 14.8763C13.5526 14.8984 12.8483 17.6172 12.6136 19.9161L12.5069 20.9328H11.6318L11.5251 19.9161C11.2904 17.6172 10.5647 14.8984 6.36013 14.8763C5.65584 13.3731 5.35704 12.1574 5.35704 10.7869C5.35704 7.36084 8.06759 4.15562 12.08 4.15562C16.0924 4.15562 18.7603 7.33861 18.7603 10.8092C18.7603 12.1574 18.6322 13.3731 17.9066 14.8763ZM12.0374 0C5.42112 0 0 5.61455 0 12.4889C0 19.3855 5.42112 25 12.0374 25C18.7176 25 24.1173 19.3855 24.1173 12.4889C24.1173 5.61457 18.7176 0 12.0374 0Z" fill="#29B24A"/>
</svg>
