<svg width="20" height="20" viewBox="0 0 20 20" fill="none" xmlns="http://www.w3.org/2000/svg">
<path d="M9.41658 13.0847L4.41658 8.0847C4.24992 7.91803 4.16658 7.75136 4.16658 7.50136C4.16658 7.25136 4.24992 7.0847 4.41658 6.91803C4.74992 6.5847 5.24992 6.5847 5.58325 6.91803L9.99992 11.3347L14.4166 6.91803C14.7499 6.5847 15.2499 6.5847 15.5833 6.91803C15.9166 7.25136 15.9166 7.75136 15.5833 8.0847L10.5833 13.0847C10.2499 13.418 9.74992 13.418 9.41658 13.0847Z" fill="#7D8797"/>
<mask id="mask0_1_16963" style="mask-type:luminance" maskUnits="userSpaceOnUse" x="4" y="6" width="12" height="8">
<path d="M9.41658 13.0847L4.41658 8.0847C4.24992 7.91803 4.16658 7.75136 4.16658 7.50136C4.16658 7.25136 4.24992 7.0847 4.41658 6.91803C4.74992 6.5847 5.24992 6.5847 5.58325 6.91803L9.99992 11.3347L14.4166 6.91803C14.7499 6.5847 15.2499 6.5847 15.5833 6.91803C15.9166 7.25136 15.9166 7.75136 15.5833 8.0847L10.5833 13.0847C10.2499 13.418 9.74992 13.418 9.41658 13.0847Z" fill="white"/>
</mask>
<g mask="url(#mask0_1_16963)">
<rect x="20" width="20" height="20" transform="rotate(90 20 0)" fill="#7D8797"/>
</g>
</svg>
