<svg width="92" height="32" viewBox="0 0 92 32" fill="none" xmlns="http://www.w3.org/2000/svg">
<path d="M21.3283 27.7143C24.8709 27.7143 27.7426 24.8425 27.7426 21.3C27.7426 17.7575 24.8709 14.8857 21.3283 14.8857C17.7858 14.8857 14.9141 17.7575 14.9141 21.3C14.9141 24.8425 17.7858 27.7143 21.3283 27.7143Z" fill="#97CF26"/>
<path d="M9.27136 24.2856C10.9203 24.2856 12.2571 22.9489 12.2571 21.2999C12.2571 19.651 10.9203 18.3142 9.27136 18.3142C7.62239 18.3142 6.28564 19.651 6.28564 21.2999C6.28564 22.9489 7.62239 24.2856 9.27136 24.2856Z" fill="#A169F7"/>
<path d="M21.3288 13.3714C23.6089 13.3714 25.4573 11.523 25.4573 9.24283C25.4573 6.96268 23.6089 5.11426 21.3288 5.11426C19.0486 5.11426 17.2002 6.96268 17.2002 9.24283C17.2002 11.523 19.0486 13.3714 21.3288 13.3714Z" fill="#FF6163"/>
<path d="M9.27143 14.5143C12.1828 14.5143 14.5429 12.1542 14.5429 9.24286C14.5429 6.33153 12.1828 3.97144 9.27143 3.97144C6.3601 3.97144 4 6.33153 4 9.24286C4 12.1542 6.3601 14.5143 9.27143 14.5143Z" fill="#00AAFF"/>
<path d="M44.4187 24.2508H47.7485L41.5819 7.45996H39.1667L32.999 24.2514H36.329L37.5067 21.0462H43.241L44.4187 24.2514L38.4342 18.5194L40.3742 13.2394L42.313 18.5194H38.4342L44.4187 24.2508ZM56.0027 12.7874L52.9385 21.1285L49.8756 12.7874H46.747L50.959 24.2508H54.9185L59.1299 12.7874H56.0022M60.4393 12.7874H63.5679V24.2508H60.4393V12.7874Z" fill="black"/>
<path d="M62.0143 11.4856C63.1267 11.4856 64.0286 10.5838 64.0286 9.47132C64.0286 8.35886 63.1267 7.45703 62.0143 7.45703C60.9018 7.45703 60 8.35886 60 9.47132C60 10.5838 60.9018 11.4856 62.0143 11.4856Z" fill="black"/>
<path d="M74.6142 15.3138V12.7875H70.8665V9.62524H67.7399V12.7875H65.2656V15.3138H67.7399V20.2458C67.7399 22.7898 69.0119 24.4878 72.2599 24.4878C73.5142 24.4878 74.6142 24.0272 74.6142 24.0272L74.2342 21.5521C74.2342 21.5521 73.6185 21.7361 72.8613 21.7361C71.9333 21.7361 70.8665 21.3361 70.8665 20.0532V15.3135L74.6142 15.3138ZM81.7885 21.6307C80.0442 21.6307 78.6308 20.2478 78.6308 18.5421C78.6308 16.8378 80.0442 15.4547 81.7879 15.4547C83.5328 15.4547 84.9456 16.8381 84.9456 18.5424C84.9456 20.2481 83.5328 21.6307 81.7885 21.6307ZM81.7885 12.495C78.3976 12.495 75.6476 15.185 75.6476 18.5007C75.6476 21.8178 78.3976 24.5064 81.7882 24.5064C85.1773 24.5064 87.9273 21.8178 87.9273 18.5007C87.9273 15.185 85.1773 12.495 81.7879 12.495" fill="black"/>
</svg>
