<svg width="20" height="20" viewBox="0 0 20 20" fill="none" xmlns="http://www.w3.org/2000/svg">
<path d="M13.0847 10.5832L8.0847 15.5832C7.91803 15.7498 7.75136 15.8332 7.50136 15.8332C7.25136 15.8332 7.0847 15.7498 6.91803 15.5832C6.5847 15.2498 6.5847 14.7498 6.91803 14.4165L11.3347 9.99984L6.91803 5.58317C6.5847 5.24984 6.5847 4.74984 6.91803 4.4165C7.25136 4.08317 7.75136 4.08317 8.0847 4.4165L13.0847 9.4165C13.418 9.74984 13.418 10.2498 13.0847 10.5832Z" fill="#7D8797"/>
<mask id="mask0_702_10136" style="mask-type:luminance" maskUnits="userSpaceOnUse" x="6" y="4" width="8" height="12">
<path d="M13.0847 10.5832L8.0847 15.5832C7.91803 15.7498 7.75136 15.8332 7.50136 15.8332C7.25136 15.8332 7.0847 15.7498 6.91803 15.5832C6.5847 15.2498 6.5847 14.7498 6.91803 14.4165L11.3347 9.99984L6.91803 5.58317C6.5847 5.24984 6.5847 4.74984 6.91803 4.4165C7.25136 4.08317 7.75136 4.08317 8.0847 4.4165L13.0847 9.4165C13.418 9.74984 13.418 10.2498 13.0847 10.5832Z" fill="white"/>
</mask>
<g mask="url(#mask0_702_10136)">
<rect width="20" height="20" fill="#7D8797"/>
</g>
</svg>
