<svg width="30" height="30" viewBox="0 0 20 20" fill="none" xmlns="http://www.w3.org/2000/svg">
    <path d="M11.9333 15.8917C11.9333 16.4 11.5999 17.0667 11.1749 17.325L9.99997 18.0833C8.9083 18.7583 7.39163 18 7.39163 16.65V12.1917C7.39163 11.6 7.0583 10.8417 6.71663 10.425L3.51661 7.05833C3.09161 6.63333 2.7583 5.88334 2.7583 5.375V3.44167C2.7583 2.43333 3.51665 1.675 4.44165 1.675H15.5583C16.4833 1.675 17.2416 2.43333 17.2416 3.35833V5.20833C17.2416 5.88333 16.8166 6.725 16.4 7.14167" stroke="#25313A" stroke-width="1.5" stroke-miterlimit="10" stroke-linecap="round" stroke-linejoin="round" />
    <path d="M13.3918 13.7667C14.8645 13.7667 16.0585 12.5728 16.0585 11.1C16.0585 9.62725 14.8645 8.43333 13.3918 8.43333C11.919 8.43333 10.7251 9.62725 10.7251 11.1C10.7251 12.5728 11.919 13.7667 13.3918 13.7667Z" stroke="#25313A" stroke-width="1.5" stroke-linecap="round" stroke-linejoin="round" />
    <path d="M16.5584 14.2667L15.7251 13.4333" stroke="#25313A" stroke-width="1.5" stroke-linecap="round" stroke-linejoin="round" />
</svg>


