<svg width="15" height="20" viewBox="0 0 15 20" fill="none" xmlns="http://www.w3.org/2000/svg"><path d="M3.90479 14.8193C4.49194 15.5566 5.02632 16.3333 5.50408 17.1437C5.91198 17.9059 6.08201 18.4227 6.38015 19.3411C6.56295 19.8484 6.72819 19.9998 7.08341 19.9998C7.47056 19.9998 7.64618 19.7422 7.78188 19.3438C8.06366 18.4766 8.28478 17.8147 8.63361 17.1893C9.31811 15.9819 10.1686 14.909 11.0044 13.8778C11.2307 13.586 12.6935 11.8857 13.3521 10.5442C13.3521 10.5442 14.1615 9.07051 14.1615 7.01239C14.1615 5.0872 13.3632 3.75195 13.3632 3.75195L11.0651 4.35842L9.66934 7.98068L9.32409 8.48017L9.25505 8.57063L9.16325 8.6839L9.002 8.86482L8.77171 9.09175L7.52883 10.0895L4.42165 11.8574L3.90479 14.8193Z" fill="#34A853"/><path d="M0.697754 10.2968C1.45609 12.0037 2.91848 13.5041 3.90791 14.8209L9.16318 8.68664C9.16318 8.68664 8.4228 9.64078 7.07975 9.64078C5.58383 9.64078 4.37528 8.46365 4.37528 6.97934C4.37528 5.96149 4.99672 5.26221 4.99672 5.26221L1.42935 6.20415L0.697754 10.2968Z" fill="#FBBC04"/><path d="M9.22167 0.31543C10.967 0.869979 12.461 2.03414 13.3646 3.75088L9.16459 8.68283C9.16459 8.68283 9.78603 7.97096 9.78603 6.9594C9.78603 5.44049 8.48808 4.30582 7.08596 4.30582C5.76006 4.30582 4.99854 5.25839 4.99854 5.25839V2.15134L9.22167 0.31543Z" fill="#4285F4"/><path d="M1.66064 2.49468C2.70316 1.26563 4.53753 0 7.06638 0C8.29329 0 9.21766 0.317391 9.21766 0.317391L4.99493 5.26114H2.00309L1.66064 2.49468Z" fill="#1A73E8"/><path d="M0.697669 10.2965C0.697669 10.2965 0 8.95021 0 6.99985C0 5.15646 0.727204 3.54513 1.66036 2.49463L4.99704 5.26148L0.697669 10.2965Z" fill="#EA4335"/></svg>
