<svg width="28" height="33" viewBox="0 0 28 33" fill="none" xmlns="http://www.w3.org/2000/svg">
    <path fill-rule="evenodd" clip-rule="evenodd" d="M27.2609 13.662C27.2609 6.1215 21.17 0 13.6304 0C6.10736 0 0 6.1215 0 13.662C0 17.4405 1.53095 20.856 4.00024 23.3145C4.19778 23.5125 4.47763 23.6445 4.77394 23.6445C5.38303 23.6445 5.87689 23.1495 5.87689 22.539C5.87689 22.2255 5.76166 21.945 5.54765 21.7305C3.48992 19.668 2.22235 16.797 2.22235 13.662C2.22235 7.359 7.32553 2.211 13.614 2.211C19.9024 2.211 25.0385 7.3425 25.0385 13.662C25.0385 16.83 23.771 19.6845 21.6968 21.7635L12.0666 31.416L13.6304 33L23.2936 23.3145C25.7464 20.856 27.2609 17.4405 27.2609 13.662Z" fill="#25313A" />
    <path fill-rule="evenodd" clip-rule="evenodd" d="M19.9516 16.302L16.544 7.68903L13.6796 12.7215L10.7988 7.68903L7.40763 16.302H6.41992V17.589H11.5396V16.302H10.7823L11.5231 14.157L13.6796 17.688L15.8361 14.157L16.5769 16.302H15.8032V17.589H20.9558V16.302H19.9516Z" fill="#25313A" />
</svg>


