<svg width="20" height="20" viewBox="0 0 20 20" fill="none" xmlns="http://www.w3.org/2000/svg">
<path fill-rule="evenodd" clip-rule="evenodd" d="M5.50207 0.926226C5.10322 0.0407139 4.68392 0.0203572 4.30553 0.0101789C3.99872 6.21083e-07 3.64078 0 3.28284 0C2.92489 0 2.35219 0.132318 1.8613 0.66159C1.3704 1.19086 0 2.47333 0 5.08915C0 7.6948 1.91243 10.219 2.17833 10.5753C2.44423 10.9315 5.87024 16.4583 11.2803 18.5856C15.7801 20.3566 16.7005 20.0004 17.6721 19.9088C18.6436 19.8172 20.822 18.6263 21.272 17.3845C21.7117 16.1428 21.7117 15.0843 21.5788 14.8603C21.4458 14.6364 21.0879 14.5041 20.5561 14.2395C20.0243 13.9748 17.4062 12.6923 16.9153 12.5091C16.4244 12.3361 16.0665 12.2445 15.7188 12.7738C15.3608 13.303 14.3381 14.4939 14.0313 14.8501C13.7245 15.2064 13.4075 15.2471 12.8757 14.9825C12.3439 14.7178 10.6258 14.158 8.5906 12.3463C7.00543 10.9417 5.9316 9.20119 5.6248 8.67192C5.31799 8.14264 5.59412 7.85765 5.86002 7.59302C6.09523 7.35892 6.39182 6.97214 6.65771 6.66679C6.92361 6.36144 7.01566 6.13752 7.18951 5.78128C7.36337 5.42504 7.28156 5.11969 7.14861 4.85505C7.01566 4.60059 5.97251 1.97459 5.50207 0.926226Z" fill="#7D8797"/>
</svg>


