<svg width="21" height="20" viewBox="0 0 21 20" fill="none" xmlns="http://www.w3.org/2000/svg">
<path d="M18 4.98356C15.225 4.70856 12.4333 4.56689 9.65 4.56689C8 4.56689 6.35 4.65023 4.7 4.81689L3 4.98356" stroke="white" stroke-width="1.5" stroke-linecap="round" stroke-linejoin="round"/>
<path d="M7.58337 4.1415L7.76671 3.04984C7.90004 2.25817 8.00004 1.6665 9.40837 1.6665H11.5917C13 1.6665 13.1084 2.2915 13.2334 3.05817L13.4167 4.1415" stroke="white" stroke-width="1.5" stroke-linecap="round" stroke-linejoin="round"/>
<path d="M16.2083 7.6167L15.6666 16.0084C15.575 17.3167 15.5 18.3334 13.175 18.3334H7.82496C5.49996 18.3334 5.42496 17.3167 5.33329 16.0084L4.79163 7.6167" stroke="white" stroke-width="1.5" stroke-linecap="round" stroke-linejoin="round"/>
<path d="M9.10828 13.75H11.8833" stroke="#25313A" stroke-width="1.5" stroke-linecap="round" stroke-linejoin="round"/>
<path d="M8.41663 10.4165H12.5833" stroke="#25313A" stroke-width="1.5" stroke-linecap="round" stroke-linejoin="round"/>
</svg>
