<svg width="18" height="18" viewBox="0 0 18 18" fill="none" xmlns="http://www.w3.org/2000/svg">
<path d="M10.2977 2.63251L11.6177 5.27251C11.7977 5.64001 12.2777 5.99251 12.6827 6.06001L15.0752 6.45751C16.6052 6.71251 16.9652 7.82251 15.8627 8.91751L14.0027 10.7775C13.6877 11.0925 13.5152 11.7 13.6127 12.135L14.1452 14.4375C14.5652 16.26 13.5977 16.965 11.9852 16.0125L9.74268 14.685C9.33768 14.445 8.67018 14.445 8.25768 14.685L6.01518 16.0125C4.41018 16.965 3.43518 16.2525 3.85518 14.4375L4.38768 12.135C4.48518 11.7 4.31268 11.0925 3.99768 10.7775L2.13768 8.91751C1.04268 7.82251 1.39518 6.71251 2.92518 6.45751L5.31768 6.06001C5.71518 5.99251 6.19518 5.64001 6.37518 5.27251L7.69518 2.63251C8.41518 1.20001 9.58518 1.20001 10.2977 2.63251Z" stroke="#7d8797" stroke-width="1.5" stroke-linecap="round" stroke-linejoin="round"></path>
</svg>